<svg xmlns="http://www.w3.org/2000/svg" width="1200" height="300" viewBox="0 0 1200 300" role="img" aria-labelledby="title description">
  <title id="title">栾俊辉 / Junhui Luan</title>
  <desc id="description">A minimal white profile header featuring personal information, research interests, and Hainan University</desc>

  <defs>
    <linearGradient id="route" x1="0" y1="0" x2="1" y2="0">
      <stop offset="0" stop-color="#93C5FD" stop-opacity="0.18"/>
      <stop offset="1" stop-color="#2563EB" stop-opacity="0.56"/>
    </linearGradient>
    <pattern id="dots" width="22" height="22" patternUnits="userSpaceOnUse">
      <circle cx="2" cy="2" r="1" fill="#B9CCE0" opacity="0.23"/>
    </pattern>
  </defs>

  <rect width="1200" height="300" rx="22" fill="#FFFFFF"/>
  <rect x="1" y="1" width="1198" height="298" rx="21" fill="none" stroke="#DCE5EE" stroke-width="2"/>
  <rect x="42" y="47" width="5" height="182" rx="2.5" fill="#2563EB"/>
  <rect x="742" y="20" width="430" height="260" fill="url(#dots)"/>

  <g font-family="-apple-system, BlinkMacSystemFont, 'Segoe UI', 'PingFang SC', 'Microsoft YaHei', Arial, sans-serif">
    <text x="72" y="65" fill="#2563EB" font-size="12" font-weight="750" letter-spacing="2.2">ACADEMIC PROFILE</text>
    <text x="72" y="125" fill="#102A43" font-size="46" font-weight="760" letter-spacing="0.35">栾俊辉 / Junhui Luan</text>
    <text x="72" y="173" fill="#334E68" font-size="22" font-weight="560" letter-spacing="0.25">Robotics · Autonomous Navigation · Embodied Intelligence</text>

    <line x1="72" y1="199" x2="626" y2="199" stroke="#D9E4EE"/>
    <rect x="72" y="220" width="10" height="10" rx="2" fill="#0EA5A4"/>
    <text x="96" y="231" fill="#536B80" font-size="17" font-weight="520">Hainan University</text>
    <circle cx="260" cy="225" r="2.5" fill="#A1B2C2"/>
    <text x="276" y="231" fill="#536B80" font-size="17">Intelligent Science and Technology</text>
  </g>

  <g fill="none" stroke-linecap="round" stroke-linejoin="round">
    <circle cx="1007" cy="137" r="76" stroke="#AFC4D8" stroke-width="1.5" opacity="0.24"/>
    <circle cx="1007" cy="137" r="49" stroke="#AFC4D8" stroke-width="1.5" stroke-dasharray="4 7" opacity="0.30"/>
    <path d="M1007 62V212M932 137H1082" stroke="#C5D5E4" stroke-width="1" opacity="0.28"/>
    <path d="M752 226C807 211 824 171 868 179C910 187 921 144 961 151C1004 158 1027 108 1081 115C1112 119 1127 96 1150 79" stroke="url(#route)" stroke-width="3"/>
  </g>

  <g fill="#FFFFFF" stroke="#4D8FEA" stroke-width="2.5">
    <circle cx="752" cy="226" r="6"/>
    <circle cx="868" cy="179" r="6"/>
    <circle cx="961" cy="151" r="6"/>
    <circle cx="1081" cy="115" r="6"/>
    <circle cx="1150" cy="79" r="6"/>
  </g>
</svg>
